<?xml version="1.0" encoding="utf-8"?>
<!-- Generator: Adobe Illustrator 28.0.0, SVG Export Plug-In . SVG Version: 6.00 Build 0)  -->
<svg version="1.1" id="Layer_1" xmlns="http://www.w3.org/2000/svg" xmlns:xlink="http://www.w3.org/1999/xlink" x="0px" y="0px"
	 viewBox="0 0 404 55.5" style="enable-background:new 0 0 404 55.5;" xml:space="preserve">
<g>
	<path d="M54.06,27.66c0,8.34-2.39,14.97-7.17,19.88c-4.78,4.91-11.39,7.37-19.83,7.37c-8.41,0-15.01-2.46-19.79-7.37
		C2.49,42.63,0.1,36,0.1,27.66c0-8.41,2.39-15.06,7.17-19.95s11.38-7.33,19.79-7.33c8.39,0,14.99,2.44,19.79,7.33
		C51.66,12.59,54.06,19.24,54.06,27.66z M36.17,40.91c1.31-1.59,2.29-3.47,2.92-5.64c0.63-2.17,0.95-4.72,0.95-7.65
		c0-3.14-0.36-5.81-1.09-8.02c-0.73-2.2-1.68-3.98-2.85-5.34c-1.2-1.41-2.57-2.43-4.13-3.06c-1.56-0.63-3.18-0.95-4.87-0.95
		c-1.71,0-3.32,0.3-4.83,0.91c-1.51,0.61-2.9,1.62-4.17,3.02c-1.17,1.31-2.13,3.12-2.87,5.43c-0.74,2.31-1.11,4.99-1.11,8.03
		c0,3.12,0.36,5.77,1.07,7.96c0.71,2.19,1.66,3.98,2.83,5.36c1.17,1.38,2.54,2.4,4.11,3.06c1.57,0.66,3.22,0.98,4.96,0.98
		c1.73,0,3.39-0.33,4.96-1C33.62,43.36,35,42.32,36.17,40.91z"/>
	<path d="M126.62,14.33l-12.23,39.48h-13.43L92.91,27.2l-7.95,26.61H71.39L59.27,14.33h13.28l6.78,27.21l8.42-27.21h11.21
		l8.01,27.21l6.67-27.21H126.62z"/>
	<path d="M173.07,36.41H144.1c0.19,3.09,1.37,5.46,3.53,7.1c2.17,1.64,5.36,2.46,9.58,2.46c2.67,0,5.26-0.48,7.77-1.44
		c2.51-0.96,4.49-1.99,5.94-3.09h1.41V51.6c-2.86,1.15-5.55,1.98-8.09,2.5s-5.33,0.77-8.4,0.77c-7.92,0-13.99-1.78-18.21-5.34
		c-4.22-3.56-6.33-8.64-6.33-15.22c0-6.52,2-11.68,5.99-15.49c4-3.81,9.47-5.71,16.44-5.71c6.42,0,11.25,1.62,14.48,4.87
		c3.23,3.25,4.85,7.92,4.85,14.01V36.41z M160.48,28.99c-0.07-2.65-0.73-4.64-1.97-5.98c-1.24-1.34-3.18-2-5.8-2
		c-2.44,0-4.44,0.63-6.01,1.9c-1.57,1.27-2.45,3.29-2.64,6.08H160.48z"/>
	<path d="M221.65,53.81h-12.69V34.23c0-1.59-0.08-3.18-0.25-4.76c-0.16-1.58-0.45-2.75-0.84-3.5c-0.47-0.87-1.15-1.5-2.06-1.9
		c-0.9-0.4-2.16-0.6-3.78-0.6c-1.15,0-2.31,0.19-3.5,0.56c-1.18,0.38-2.47,0.97-3.85,1.79v27.98H182V14.33h12.69v4.36
		c2.25-1.76,4.41-3.11,6.48-4.04c2.07-0.94,4.37-1.41,6.9-1.41c4.26,0,7.59,1.24,9.99,3.73c2.4,2.48,3.6,6.2,3.6,11.14V53.81z"/>
	<path d="M277.2,17.99c0,2.34-0.41,4.64-1.23,6.87c-0.82,2.24-1.99,4.12-3.52,5.64c-2.09,2.06-4.41,3.62-6.98,4.68
		s-5.76,1.58-9.58,1.58h-8.4v17.05h-13.5V1.47h22.22c3.33,0,6.13,0.29,8.42,0.86c2.29,0.57,4.31,1.44,6.06,2.58
		c2.11,1.38,3.72,3.15,4.83,5.31C276.64,12.38,277.2,14.97,277.2,17.99z M263.24,18.29c0-1.47-0.4-2.74-1.2-3.81
		c-0.8-1.06-1.72-1.81-2.78-2.23c-1.41-0.56-2.78-0.87-4.11-0.93s-3.12-0.09-5.34-0.09h-2.32v15.64h3.87c2.3,0,4.19-0.14,5.68-0.42
		c1.49-0.28,2.74-0.84,3.74-1.68c0.87-0.75,1.49-1.64,1.88-2.68C263.05,21.06,263.24,19.79,263.24,18.29z"/>
	<path d="M324.94,36.41h-28.97c0.19,3.09,1.37,5.46,3.53,7.1c2.17,1.64,5.36,2.46,9.58,2.46c2.67,0,5.26-0.48,7.77-1.44
		c2.51-0.96,4.49-1.99,5.94-3.09h1.41V51.6c-2.86,1.15-5.55,1.98-8.09,2.5s-5.33,0.77-8.4,0.77c-7.92,0-13.99-1.78-18.21-5.34
		c-4.22-3.56-6.33-8.64-6.33-15.22c0-6.52,2-11.68,5.99-15.49c4-3.81,9.47-5.71,16.44-5.71c6.42,0,11.25,1.62,14.48,4.87
		c3.23,3.25,4.85,7.92,4.85,14.01V36.41z M312.35,28.99c-0.07-2.65-0.73-4.64-1.97-5.98c-1.24-1.34-3.18-2-5.8-2
		c-2.44,0-4.44,0.63-6.01,1.9c-1.57,1.27-2.45,3.29-2.64,6.08H312.35z"/>
	<path d="M362.49,26.39h-1.12c-0.54-0.19-1.4-0.33-2.6-0.42c-1.19-0.09-2.19-0.14-2.98-0.14c-1.8,0-3.39,0.12-4.77,0.35
		c-1.38,0.23-2.87,0.63-4.46,1.2v26.44h-12.69V14.33h12.69v5.8c2.78-2.39,5.2-3.98,7.26-4.76c2.06-0.79,3.95-1.18,5.68-1.18
		c0.44,0,0.95,0.01,1.51,0.04c0.56,0.02,1.05,0.06,1.47,0.11V26.39z"/>
	<path d="M403.97,41.3c0,4.08-1.83,7.37-5.48,9.86s-8.66,3.74-15.01,3.74c-3.52,0-6.7-0.33-9.56-0.98
		c-2.86-0.66-5.16-1.38-6.89-2.18V41.33h1.16c0.63,0.45,1.37,0.93,2.2,1.46c0.83,0.53,2.01,1.1,3.53,1.71c1.31,0.54,2.8,1,4.46,1.39
		c1.66,0.39,3.45,0.58,5.34,0.58c2.48,0,4.32-0.28,5.52-0.83c1.2-0.55,1.79-1.37,1.79-2.44c0-0.96-0.35-1.66-1.05-2.09
		c-0.7-0.43-2.04-0.85-4.01-1.25c-0.94-0.21-2.21-0.44-3.81-0.69c-1.61-0.25-3.06-0.54-4.38-0.9c-3.59-0.94-6.25-2.4-7.98-4.38
		c-1.73-1.98-2.6-4.45-2.6-7.4c0-3.8,1.8-6.96,5.4-9.47c3.6-2.52,8.51-3.78,14.75-3.78c2.95,0,5.78,0.3,8.49,0.9
		s4.82,1.24,6.35,1.92v9.98h-1.09c-1.88-1.29-4.01-2.34-6.42-3.15c-2.4-0.81-4.83-1.21-7.29-1.21c-2.04,0-3.76,0.28-5.15,0.84
		c-1.39,0.56-2.09,1.36-2.09,2.39c0,0.94,0.32,1.65,0.95,2.14s2.12,0.98,4.46,1.48c1.29,0.26,2.68,0.51,4.17,0.76
		c1.49,0.25,2.98,0.56,4.48,0.93c3.33,0.87,5.79,2.23,7.38,4.1C403.18,36.18,403.97,38.51,403.97,41.3z"/>
</g>
</svg>
